<?xml version="1.0" standalone="no"?>
<!DOCTYPE svg PUBLIC "-//W3C//DTD SVG 20010904//EN"
 "http://www.w3.org/TR/2001/REC-SVG-20010904/DTD/svg10.dtd">
<svg version="1.0" xmlns="http://www.w3.org/2000/svg"
 width="434.000000pt" height="430.000000pt" viewBox="0 0 434.000000 430.000000"
 preserveAspectRatio="xMidYMid meet">

<g transform="translate(0.000000,430.000000) scale(0.100000,-0.100000)"
fill="#000000" stroke="none">
<path d="M1980 4284 c-272 -32 -481 -86 -694 -180 -681 -299 -1164 -940 -1261
-1673 -19 -136 -19 -426 0 -562 141 -1061 1059 -1859 2138 -1859 979 0 1826
633 2092 1565 58 203 70 299 70 575 0 276 -12 372 -70 575 -231 809 -913 1409
-1753 1541 -92 14 -448 27 -522 18z m485 -70 c259 -36 530 -129 746 -257 528
-311 877 -796 1006 -1402 26 -124 28 -142 28 -405 0 -262 -2 -281 -28 -403
-94 -440 -283 -785 -594 -1087 -152 -149 -267 -235 -438 -332 -224 -127 -500
-216 -767 -249 -127 -15 -494 -7 -603 14 -327 62 -598 177 -867 367 -107 75
-312 270 -400 379 -614 759 -616 1849 -7 2611 195 244 425 429 712 571 371
184 794 251 1212 193z"/>
<path d="M2012 4169 c-706 -53 -1339 -481 -1656 -1120 -501 -1010 -79 -2236
939 -2726 547 -263 1202 -263 1750 1 482 231 860 652 1035 1151 79 225 112
426 112 675 0 332 -62 599 -207 895 -363 742 -1143 1187 -1973 1124z m88 -148
c34 -25 50 -58 50 -109 0 -60 -22 -96 -70 -116 -51 -20 -83 -20 -121 -1 -78
41 -92 168 -25 225 40 33 122 34 166 1z m156 -76 l-7 -105 29 0 c58 0 92 -12
92 -31 0 -16 -8 -19 -52 -19 -29 0 -70 3 -90 6 l-37 7 5 111 c3 61 7 117 10
124 2 6 15 12 30 12 l27 0 -7 -105z m267 70 c42 -6 47 -10 47 -32 0 -21 -4
-24 -24 -19 -22 5 -24 2 -35 -51 -16 -80 -14 -100 9 -106 22 -6 24 -14 11 -35
-6 -11 -20 -11 -74 -1 -60 11 -67 15 -67 36 0 20 4 22 24 17 22 -5 24 -2 35
59 14 83 14 97 -3 97 -19 0 -29 17 -22 37 4 10 14 13 29 10 12 -3 43 -9 70
-12z m-718 -21 c27 -11 38 -53 20 -80 -19 -29 -19 -34 0 -34 8 0 22 -11 31
-25 20 -31 12 -70 -18 -86 -22 -12 -160 -50 -164 -46 -2 1 -16 55 -32 120 -21
83 -27 120 -19 122 79 27 155 39 182 29z m967 -41 c31 -15 48 -41 48 -73 0
-18 -4 -20 -22 -14 -13 3 -25 11 -27 17 -17 45 -96 64 -96 22 0 -14 14 -26 47
-42 56 -27 80 -57 71 -92 -10 -43 -32 -61 -75 -61 -75 0 -138 44 -138 97 0 37
41 27 54 -13 6 -21 44 -44 70 -44 8 0 19 7 26 15 17 20 0 40 -58 67 -54 26
-70 55 -52 97 20 49 83 59 152 24z m-1208 -30 c7 -18 -6 -30 -41 -39 -13 -3
-23 -9 -23 -13 0 -4 16 -47 36 -95 35 -89 35 -101 1 -108 -15 -2 -26 15 -54
87 -20 50 -37 91 -39 93 -1 2 -18 -4 -38 -12 -34 -14 -36 -14 -46 5 -10 17 -6
22 27 35 21 9 63 27 93 40 66 28 76 29 84 7z m1391 -40 c40 -19 39 -13 20
-122 -8 -47 -13 -86 -11 -88 2 -2 33 28 68 68 l65 71 41 -21 c23 -12 42 -24
42 -26 0 -6 -100 -208 -106 -214 -2 -2 -15 1 -29 7 l-25 12 42 82 c24 46 44
88 46 93 2 6 -30 -25 -70 -69 l-74 -79 -32 17 c-25 13 -31 21 -27 39 13 53 31
176 26 173 -3 -2 -24 -41 -46 -85 -21 -45 -42 -81 -45 -81 -3 0 -15 6 -26 14
-18 14 -17 18 33 120 29 58 57 106 63 106 5 0 25 -8 45 -17z m-1607 -128 c60
-107 57 -148 -18 -194 -38 -23 -80 -27 -110 -11 -18 10 -110 152 -110 170 0 5
10 14 21 21 17 9 24 8 30 -2 4 -8 25 -43 46 -79 27 -45 45 -66 61 -68 29 -4
72 23 72 46 0 9 -20 51 -45 92 -41 68 -43 76 -28 88 9 6 22 12 27 12 6 0 30
-34 54 -75z m-320 -147 l-53 -47 20 -20 20 -20 44 34 c49 39 54 41 69 22 9
-10 0 -22 -38 -51 -54 -41 -54 -39 -6 -94 l20 -22 -21 -21 -21 -21 -76 95
c-42 52 -76 98 -76 103 1 5 33 35 73 66 65 52 73 55 85 40 11 -15 6 -23 -40
-64z m2313 49 c44 -29 73 -87 64 -128 -10 -45 -70 -107 -110 -115 -44 -8 -70
1 -116 43 -47 43 -58 86 -34 137 40 84 124 111 196 63z m-881 -22 c325 -70
591 -220 817 -459 429 -452 526 -1145 240 -1712 -68 -136 -157 -255 -281 -380
-221 -220 -457 -349 -766 -415 -151 -33 -448 -33 -596 -1 -312 68 -549 196
-770 416 -218 219 -348 456 -417 764 -18 82 -21 128 -21 302 0 174 3 220 21
302 69 308 199 545 417 764 239 238 505 375 841 430 106 18 412 11 515 -11z
m-2008 -1432 c23 -20 24 -80 1 -105 -22 -24 -77 -24 -103 2 -44 44 -11 120 52
120 17 0 40 -7 50 -17z m3538 -3 c44 -44 11 -120 -52 -120 -17 0 -40 7 -50 17
-23 20 -24 80 -1 105 22 24 77 24 103 -2z m-3246 -888 c3 -4 -20 -23 -50 -41
-55 -33 -69 -62 -42 -89 18 -18 32 -15 87 18 31 18 53 25 57 19 7 -12 10 -10
-48 -43 -62 -36 -97 -32 -120 13 -22 43 -12 62 50 101 51 32 58 34 66 22z
m2886 3 c0 -3 -11 -23 -25 -45 l-25 -39 21 -11 c17 -9 23 -8 35 7 7 10 16 26
19 36 4 9 11 17 16 17 13 0 12 -6 -10 -48 -19 -38 -19 -38 1 -51 23 -14 24
-13 54 42 8 15 19 27 25 27 14 0 7 -17 -26 -70 l-26 -41 -57 32 c-87 49 -85
44 -51 100 26 42 49 62 49 44z m-111 -181 c-14 -18 -16 -15 62 -75 19 -15 30
-31 26 -35 -4 -5 -14 -4 -22 1 -8 6 -33 23 -55 40 l-42 29 -18 -23 c-9 -13
-20 -20 -23 -14 -3 5 13 33 36 63 22 29 43 48 45 42 2 -7 -2 -20 -9 -28z
m-2664 -3 c4 -12 -6 -43 -25 -80 -16 -33 -30 -63 -30 -66 0 -3 23 13 51 35 28
22 55 40 60 40 22 0 5 -22 -52 -66 -53 -41 -63 -45 -75 -32 -13 13 -11 23 16
82 16 37 30 70 30 73 0 3 -19 -10 -42 -29 -56 -45 -65 -50 -72 -39 -7 10 101
100 121 101 6 0 14 -9 18 -19z m2583 -143 c7 -7 12 -20 12 -31 0 -10 5 -15 11
-12 13 9 61 -34 53 -47 -3 -5 -13 -3 -22 5 -31 26 -40 27 -66 6 l-27 -22 26
-27 c49 -52 8 -40 -51 14 l-59 54 34 36 c36 37 68 45 89 24z m-2439 -24 c25
-31 28 -52 6 -34 -13 11 -22 7 -55 -25 -32 -31 -38 -43 -33 -64 6 -25 5 -25
-30 8 -34 32 -43 67 -10 40 12 -10 21 -5 55 29 35 35 40 43 29 56 -11 13 -11
16 2 16 9 0 25 -12 36 -26z m145 -135 c30 -35 32 -49 12 -87 -19 -36 -57 -56
-90 -48 -67 17 -87 88 -39 138 38 39 83 38 117 -3z m2157 21 c20 -11 49 -60
49 -84 0 -8 -12 -28 -26 -45 -19 -23 -34 -31 -59 -31 -60 0 -107 85 -72 131
28 36 72 48 108 29z m-2027 -198 l-5 -77 37 58 c22 36 40 55 46 49 6 -6 -7
-35 -32 -75 -36 -58 -45 -65 -61 -57 -17 9 -18 19 -13 88 l5 77 -37 -58 c-23
-37 -40 -55 -46 -49 -6 6 5 34 32 76 36 57 44 64 61 56 17 -9 18 -19 13 -88z
m1844 72 c31 -22 28 -54 -9 -85 -28 -22 -30 -28 -20 -47 7 -13 9 -27 5 -33 -6
-10 -25 14 -72 92 l-22 37 42 26 c51 30 48 30 76 10z m-168 -82 c0 -5 -18 -17
-40 -27 -45 -20 -44 -19 -30 -46 11 -19 11 -19 50 1 21 11 41 16 44 11 3 -4
-12 -16 -34 -26 -44 -20 -46 -23 -27 -49 13 -17 15 -17 55 3 23 12 42 17 42
11 0 -9 -99 -65 -105 -58 -7 8 -65 128 -65 136 0 9 78 50 98 51 6 1 12 -3 12
-7z m-1348 -74 c19 -9 33 -49 25 -70 -3 -8 -9 -3 -15 12 -11 28 -27 43 -55 53
-42 15 -88 -78 -55 -111 14 -14 78 -16 78 -2 0 6 7 10 15 10 23 0 18 -18 -10
-36 -20 -13 -30 -14 -59 -4 -43 14 -59 33 -59 71 0 79 62 115 135 77z m1186
-30 c27 -30 37 -71 22 -98 -13 -25 -98 -66 -110 -53 -12 13 -50 136 -44 142 9
10 68 29 90 30 11 1 30 -9 42 -21z m-967 -44 c26 -23 25 -84 -2 -118 -40 -51
-139 -20 -139 45 0 34 23 84 42 93 22 9 80 -2 99 -20z m166 -86 l28 -73 8 55
c12 73 15 82 28 75 5 -4 8 -19 5 -33 -2 -15 -8 -49 -11 -75 -6 -42 -9 -48 -28
-45 -16 2 -28 20 -48 73 l-27 70 -6 -50 c-4 -27 -8 -56 -9 -64 -1 -8 -8 -16
-15 -19 -11 -3 -12 8 -7 54 10 92 14 104 34 104 15 0 26 -18 48 -72z m448 15
c10 -79 10 -79 58 -75 28 3 39 1 32 -6 -5 -6 -30 -12 -55 -14 l-44 -3 -8 45
c-4 25 -10 60 -13 78 -4 24 -2 32 8 32 10 0 17 -17 22 -57z m-95 37 c0 -5 -17
-10 -37 -10 -47 0 -66 -12 -61 -36 3 -15 11 -18 51 -15 29 1 47 -2 47 -8 0 -6
-20 -11 -45 -11 -43 0 -45 -1 -45 -30 l0 -31 50 7 c31 4 50 3 50 -4 0 -11
-108 -27 -118 -17 -4 3 -8 39 -10 80 l-4 73 28 5 c56 8 94 7 94 -3z"/>
<path d="M1969 3979 c-18 -18 -21 -30 -16 -72 5 -55 24 -77 67 -77 14 0 36 7
48 16 30 21 32 104 2 134 -26 26 -74 26 -101 -1z"/>
<path d="M1698 3943 c-19 -5 -23 -29 -10 -51 10 -15 66 -6 83 14 27 33 -13 53
-73 37z"/>
<path d="M1732 3849 c-24 -7 -32 -14 -28 -25 3 -9 6 -23 6 -31 0 -12 8 -14 38
-8 49 9 71 29 56 53 -14 21 -29 23 -72 11z"/>
<path d="M3234 3615 c-28 -19 -48 -69 -40 -100 7 -29 58 -59 86 -50 30 9 70
64 70 94 0 56 -69 89 -116 56z"/>
<path d="M1945 3625 c-616 -97 -1103 -557 -1236 -1168 -26 -119 -36 -350 -20
-482 47 -405 263 -776 594 -1024 357 -266 828 -357 1262 -244 554 145 970 586
1090 1158 23 107 31 355 16 470 -61 463 -331 871 -735 1107 -148 87 -372 163
-549 187 -103 14 -322 12 -422 -4z m123 -416 l63 -28 -69 -133 c-39 -73 -78
-154 -87 -180 -16 -43 -22 -49 -69 -64 -82 -27 -267 -118 -317 -156 l-46 -36
-156 79 -156 79 33 79 c18 43 44 98 57 122 50 89 245 217 431 280 l110 38 72
-26 c39 -14 99 -38 134 -54z m667 -57 c188 -111 355 -286 450 -471 l17 -34
-48 35 c-27 20 -81 52 -121 72 -43 21 -74 44 -78 56 -12 37 -119 163 -223 262
-67 63 -102 103 -102 117 0 25 1 24 105 -37z m-156 1 c27 -4 62 -34 161 -132
69 -69 143 -152 164 -184 l37 -57 -69 -153 -69 -152 -244 -3 -244 -2 -115 126
c-63 70 -137 151 -163 180 l-48 54 41 87 c22 48 61 125 87 172 l46 84 191 -7
c105 -3 206 -9 225 -13z m-1216 -484 c78 -39 145 -74 150 -78 4 -4 8 -105 9
-224 l1 -216 -81 -81 c-45 -44 -111 -121 -148 -170 -76 -102 -55 -100 -212
-21 -56 28 -106 59 -111 69 -17 32 -24 212 -12 312 19 153 47 243 98 311 50
66 145 169 156 169 4 0 72 -32 150 -71z m1484 -326 c69 -149 133 -309 133
-335 0 -60 -166 -352 -241 -424 l-30 -29 -162 -1 c-89 -1 -189 1 -221 5 l-60
6 -106 226 -107 225 101 151 c56 83 115 179 131 212 l30 60 243 1 243 0 46
-97z m-719 -555 c57 -121 101 -227 98 -234 -3 -8 -57 -81 -120 -163 l-115
-148 -58 9 c-119 18 -401 101 -449 132 -30 20 -224 373 -224 408 0 23 126 181
207 260 l79 77 240 -60 240 -60 102 -221z m1181 200 c-24 -200 -106 -404 -228
-565 -90 -120 -126 -148 -209 -167 -116 -26 -108 -33 -115 97 -3 61 -11 127
-17 145 -12 31 -11 34 34 82 76 81 173 244 220 371 l18 46 87 12 c47 7 111 18
141 25 30 8 60 14 66 15 7 1 8 -19 3 -61z m-1504 -738 c66 -17 132 -30 147
-30 20 0 47 -18 100 -67 70 -64 153 -113 191 -113 29 0 15 -21 -39 -58 l-49
-34 -100 6 c-219 13 -452 99 -631 234 l-62 47 61 56 62 56 100 -34 c55 -19
154 -47 220 -63z m1050 -55 c-53 -46 -173 -116 -262 -153 -104 -44 -364 -105
-362 -85 2 24 84 76 139 89 78 18 164 54 272 115 64 36 99 49 130 50 24 1 57
5 73 9 50 13 51 10 10 -25z"/>
<path d="M3372 957 l-22 -24 21 -19 c20 -18 21 -18 40 6 37 48 2 81 -39 37z"/>
<path d="M1045 815 c-14 -13 -25 -33 -25 -45 0 -21 33 -60 51 -60 21 0 49 21
64 49 13 27 13 31 -6 55 -26 33 -53 33 -84 1z"/>
<path d="M3220 820 c-27 -27 -25 -51 5 -84 30 -32 55 -33 84 -2 27 29 22 56
-16 86 -32 25 -48 25 -73 0z"/>
<path d="M3056 697 c-13 -10 -16 -20 -12 -35 9 -28 30 -28 57 -1 16 16 18 23
8 35 -14 18 -30 18 -53 1z"/>
<path d="M2701 529 c-14 -5 -21 -15 -18 -23 3 -8 11 -33 18 -56 11 -37 15 -41
38 -35 14 4 32 11 38 17 30 24 2 109 -35 107 -9 0 -28 -5 -41 -10z"/>
<path d="M1728 483 c-41 -47 -22 -113 31 -113 35 0 50 17 58 63 4 28 1 37 -18
51 -30 21 -52 20 -71 -1z"/>
</g>
</svg>
