<?xml version="1.0" standalone="no"?>
<!DOCTYPE svg PUBLIC "-//W3C//DTD SVG 20010904//EN"
 "http://www.w3.org/TR/2001/REC-SVG-20010904/DTD/svg10.dtd">
<svg version="1.0" xmlns="http://www.w3.org/2000/svg"
 width="434.000000pt" height="430.000000pt" viewBox="0 0 434.000000 430.000000"
 preserveAspectRatio="xMidYMid meet">

<g transform="translate(0.000000,430.000000) scale(0.100000,-0.100000)"
fill="#000000" stroke="none">
<path d="M1980 4284 c-272 -32 -481 -86 -694 -180 -681 -299 -1164 -940 -1261
-1673 -19 -136 -19 -426 0 -562 141 -1061 1059 -1859 2138 -1859 979 0 1826
633 2092 1565 58 203 70 299 70 575 0 276 -12 372 -70 575 -231 809 -913 1409
-1753 1541 -92 14 -448 27 -522 18z m487 -70 c483 -70 912 -298 1249 -664 245
-266 419 -613 501 -995 26 -124 28 -142 28 -405 0 -262 -2 -281 -28 -403 -48
-225 -121 -424 -222 -606 -325 -587 -909 -980 -1578 -1062 -64 -7 -174 -10
-315 -6 -182 4 -237 10 -341 31 -405 86 -741 262 -1029 540 -141 137 -217 228
-313 374 -138 211 -239 459 -296 727 -26 124 -28 142 -28 405 0 263 2 281 28
405 120 561 437 1031 902 1338 248 164 582 289 870 326 122 15 453 13 572 -5z"/>
<path d="M1983 4041 c-59 -15 -93 -62 -93 -128 0 -81 67 -140 147 -129 79 11
113 50 113 129 0 95 -74 151 -167 128z m87 -61 c30 -30 28 -113 -2 -134 -12
-9 -34 -16 -48 -16 -43 0 -62 22 -67 77 -5 42 -2 54 16 72 27 27 75 27 101 1z"/>
<path d="M2206 4038 c-3 -7 -7 -63 -10 -124 l-6 -111 31 -7 c17 -3 58 -6 90
-6 51 0 59 3 59 19 0 21 -26 31 -82 31 l-38 0 7 105 6 105 -27 0 c-15 0 -28
-6 -30 -12z"/>
<path d="M2424 4017 c-7 -20 3 -37 22 -37 17 0 17 -14 3 -97 -11 -61 -13 -64
-35 -59 -20 5 -24 3 -24 -18 0 -22 6 -25 65 -35 36 -7 70 -9 75 -6 17 11 11
37 -10 42 -23 6 -24 14 -9 100 10 59 12 63 35 57 21 -5 24 -3 24 19 0 22 -5
26 -47 32 -27 3 -58 9 -70 12 -15 3 -25 0 -29 -10z"/>
<path d="M1690 3984 c-30 -8 -60 -17 -67 -19 -8 -2 -2 -39 19 -122 16 -65 30
-119 32 -120 4 -4 142 34 164 46 25 13 39 57 25 79 -8 13 -24 25 -51 39 -2 1
4 12 12 26 12 18 14 31 7 49 -16 42 -47 46 -141 22z m86 -49 c9 -22 -11 -42
-48 -49 -33 -7 -48 4 -48 36 0 26 87 38 96 13z m28 -97 c15 -24 -7 -44 -56
-53 -30 -6 -38 -4 -38 8 0 8 -3 22 -6 31 -4 11 4 18 28 25 43 12 58 10 72 -11z"/>
<path d="M2659 3969 c-15 -6 -33 -23 -39 -40 -18 -43 0 -75 53 -98 55 -24 74
-46 57 -66 -7 -8 -18 -15 -26 -15 -26 0 -64 23 -70 44 -13 40 -54 50 -54 13 0
-53 60 -97 133 -97 47 0 69 16 82 58 10 33 -17 69 -73 95 -33 16 -47 28 -47
42 0 42 79 23 96 -22 2 -6 14 -14 27 -17 18 -6 22 -4 22 14 0 12 -5 30 -10 41
-21 38 -105 65 -151 48z"/>
<path d="M1445 3901 c-73 -31 -89 -41 -87 -57 5 -26 4 -26 47 -9 20 9 38 15
39 13 2 -2 19 -43 39 -93 28 -72 39 -89 54 -87 34 7 34 19 -1 108 -20 48 -36
91 -36 95 0 4 10 10 23 13 35 9 48 21 41 39 -9 23 -16 22 -119 -22z"/>
<path d="M2847 3794 c-50 -102 -51 -106 -33 -120 11 -8 23 -14 26 -14 3 0 24
36 45 81 22 44 43 83 46 85 6 3 2 -23 -25 -168 -5 -23 0 -30 26 -44 l32 -17
74 79 c40 44 72 75 70 69 -2 -5 -22 -47 -46 -93 l-42 -82 25 -12 c14 -6 27 -9
29 -7 6 6 106 208 106 214 0 2 -19 14 -42 26 l-41 21 -65 -71 c-35 -40 -66
-70 -68 -68 -2 2 3 41 11 88 8 46 15 89 15 95 0 10 -61 44 -80 44 -6 0 -34
-48 -63 -106z"/>
<path d="M1273 3822 l-22 -17 46 -78 c40 -68 44 -81 35 -102 -11 -24 -51 -41
-75 -32 -6 2 -29 33 -50 68 -58 99 -52 93 -76 80 -11 -7 -21 -16 -21 -21 0
-18 92 -160 110 -170 30 -16 72 -12 110 11 76 47 79 87 14 199 -26 44 -47 80
-48 80 0 0 -11 -8 -23 -18z"/>
<path d="M983 3632 c-40 -31 -72 -61 -73 -66 0 -5 34 -51 76 -103 l76 -95 21
21 21 21 -20 22 c-48 55 -48 53 6 94 38 29 47 41 38 51 -15 19 -20 17 -69 -22
l-44 -34 -20 20 -20 20 53 47 c46 41 51 49 40 64 -12 15 -20 12 -85 -40z"/>
<path d="M3192 3655 c-41 -35 -65 -89 -58 -130 7 -35 67 -98 106 -110 40 -13
87 4 123 44 45 50 54 90 30 138 -39 80 -140 109 -201 58z m135 -47 c30 -28 29
-69 -2 -107 -33 -39 -57 -46 -94 -27 -50 27 -53 79 -7 129 31 33 71 35 103 5z"/>
<path d="M2075 3498 c-131 -9 -257 -37 -391 -87 -452 -171 -784 -581 -860
-1064 -24 -150 -15 -397 20 -534 67 -265 193 -482 390 -671 418 -399 1035
-493 1550 -235 386 193 646 533 737 963 29 136 31 359 5 500 -48 266 -173 514
-355 703 -294 306 -675 454 -1096 425z m-33 -129 c70 -29 128 -55 128 -60 0
-4 -27 -57 -60 -118 -32 -61 -73 -143 -90 -183 -17 -40 -34 -79 -38 -86 -4 -7
-66 -37 -138 -66 -145 -58 -228 -102 -290 -152 l-41 -33 -164 83 c-90 45 -170
85 -177 87 -10 3 0 38 39 129 58 140 92 181 218 263 148 98 396 202 455 192
16 -3 87 -28 158 -56z m776 -69 c208 -108 410 -309 528 -525 l38 -70 -41 33
c-23 18 -83 55 -133 81 -80 42 -95 55 -120 97 -38 67 -158 202 -268 303 -54
49 -92 91 -92 102 0 10 3 19 6 19 3 0 40 -18 82 -40z m-238 -10 c71 -7 123
-16 138 -26 13 -8 73 -63 134 -122 116 -112 228 -251 228 -282 0 -10 -34 -93
-77 -184 l-76 -166 -272 0 -272 0 -179 196 c-98 108 -180 203 -182 213 -3 16
154 337 179 367 14 17 206 19 379 4z m-1096 -815 c-4 -100 -2 -200 4 -243 l10
-73 -102 -102 c-56 -56 -133 -144 -171 -195 -57 -77 -72 -91 -89 -86 -12 4
-78 35 -148 71 -85 43 -128 70 -129 81 0 9 -4 55 -8 102 -10 118 4 292 34 419
25 104 28 110 98 197 39 49 91 108 114 132 l43 42 175 -87 175 -88 -6 -170z
m1502 -120 c73 -158 134 -309 141 -348 11 -72 -140 -356 -255 -479 l-45 -48
-216 0 c-119 0 -232 3 -251 6 -35 6 -36 7 -150 251 -63 135 -116 250 -118 256
-1 7 48 89 110 182 62 94 129 200 148 238 l35 67 273 -2 273 -3 55 -120z
m-932 -367 c19 -22 234 -503 229 -511 -4 -7 -65 -87 -136 -179 -91 -118 -136
-168 -150 -168 -42 0 -259 54 -405 102 l-153 49 -36 57 c-20 31 -77 135 -126
230 -76 147 -88 177 -79 196 19 42 168 221 244 292 l74 71 268 -68 c147 -37
269 -69 270 -71z m1451 0 c-35 -285 -154 -549 -340 -755 -61 -68 -105 -88
-227 -103 l-58 -6 0 100 c0 56 -7 130 -15 164 l-15 64 49 54 c27 29 70 84 94
121 44 66 143 260 164 320 11 29 13 30 119 47 60 9 134 23 164 30 30 8 59 14
63 15 5 1 6 -23 2 -51z m-1912 -793 c145 -46 343 -95 385 -95 15 0 50 -24 95
-65 70 -64 190 -135 228 -135 31 0 22 -17 -28 -55 -60 -46 -76 -49 -192 -42
-180 11 -370 66 -533 155 -85 46 -238 151 -238 163 0 4 17 18 39 32 21 14 49
39 62 56 13 16 28 30 32 30 5 1 73 -19 150 -44z m1412 -111 c-173 -143 -423
-246 -680 -280 l-50 -6 50 45 c39 36 62 48 105 57 71 15 222 79 332 141 60 34
99 49 125 50 21 0 56 4 78 8 66 14 72 12 40 -15z"/>
<path d="M350 2200 c-45 -45 -11 -120 53 -120 42 0 70 29 70 70 0 63 -78 95
-123 50z"/>
<path d="M3885 2200 c-42 -46 -10 -120 52 -120 42 0 73 30 73 70 0 62 -84 95
-125 50z"/>
<path d="M632 1317 c-62 -37 -72 -63 -45 -109 25 -43 57 -46 122 -13 28 14 51
27 51 29 0 3 -3 11 -6 19 -4 12 -16 9 -60 -15 -44 -24 -58 -28 -69 -18 -23 19
-18 48 10 65 14 8 36 22 50 30 15 9 22 21 19 30 -8 20 -11 19 -72 -18z"/>
<path d="M3638 1343 c-3 -4 -17 -29 -32 -54 l-27 -47 65 -36 c35 -20 68 -36
73 -36 4 0 21 23 37 51 19 35 25 54 18 61 -7 7 -17 0 -31 -23 -12 -19 -22 -38
-24 -44 -2 -6 -11 -4 -21 4 -15 13 -15 16 3 47 18 30 18 44 0 44 -5 0 -15 -13
-24 -30 -9 -16 -22 -30 -30 -30 -19 0 -19 13 1 52 10 19 12 34 6 40 -5 5 -12
6 -14 1z"/>
<path d="M3508 1135 c-21 -29 -38 -56 -38 -59 0 -12 24 -6 41 10 16 14 21 12
69 -22 42 -30 54 -35 61 -23 7 10 0 21 -23 39 -75 59 -74 58 -60 71 6 7 12 19
12 26 0 28 -27 10 -62 -42z"/>
<path d="M728 1127 c-32 -23 -58 -46 -58 -50 0 -22 34 -16 69 12 21 17 41 31
44 31 3 0 -9 -26 -27 -59 -32 -57 -33 -59 -16 -81 18 -23 18 -23 46 -5 75 48
105 77 93 91 -9 12 -17 9 -48 -14 -62 -49 -65 -47 -30 16 32 60 33 61 14 81
-10 12 -21 21 -24 20 -3 0 -32 -19 -63 -42z"/>
<path d="M3387 982 c-20 -21 -37 -42 -36 -47 1 -6 26 -32 55 -59 50 -45 56
-48 70 -34 15 15 14 18 -10 33 -25 17 -26 19 -10 36 21 23 32 24 54 4 15 -14
18 -14 30 0 11 13 10 18 -6 30 -10 8 -27 15 -36 15 -11 0 -18 8 -18 18 0 22
-19 42 -40 42 -9 0 -33 -17 -53 -38z m66 -16 c3 -8 -3 -22 -13 -31 -16 -15
-22 -16 -35 -5 -14 12 -14 15 1 31 20 23 40 24 47 5z"/>
<path d="M917 994 c-3 -3 -3 -13 0 -21 9 -23 -47 -75 -74 -68 -12 3 -24 1 -27
-3 -8 -13 61 -75 74 -67 7 5 8 11 1 19 -16 19 48 77 77 70 29 -8 28 1 -4 43
-25 33 -35 39 -47 27z"/>
<path d="M3265 861 c-64 -27 -77 -97 -27 -143 37 -32 51 -34 92 -13 59 31 65
82 16 131 -35 35 -47 39 -81 25z m69 -64 l20 -27 -27 -27 -27 -27 -27 20 c-31
24 -41 58 -22 80 18 22 59 13 83 -19z"/>
<path d="M986 829 c-34 -40 -33 -74 3 -110 35 -35 77 -38 110 -8 47 44 47 100
-1 133 -37 26 -82 21 -112 -15z m98 -15 c22 -21 20 -43 -6 -71 -26 -28 -42
-29 -68 -3 -25 25 -25 31 1 64 23 29 50 33 73 10z"/>
<path d="M1174 693 c-40 -62 -46 -83 -27 -90 6 -2 24 17 38 42 15 25 29 44 32
42 2 -2 -1 -31 -6 -63 -9 -55 -8 -60 12 -76 12 -10 24 -18 27 -18 11 0 90 131
85 140 -12 19 -26 9 -57 -40 -32 -52 -43 -62 -34 -32 2 9 7 40 11 68 6 47 4
52 -19 67 l-25 17 -37 -57z"/>
<path d="M3067 710 l-48 -30 42 -63 c23 -34 43 -63 44 -65 1 -1 10 0 19 4 16
6 16 8 0 31 -17 27 -17 28 29 54 23 13 22 61 -1 82 -25 23 -31 22 -85 -13z
m66 -24 c3 -8 -3 -22 -14 -32 -19 -17 -20 -17 -37 0 -16 16 -16 18 2 32 25 18
42 18 49 0z"/>
<path d="M2915 623 c-27 -14 -52 -27 -54 -29 -4 -4 60 -144 66 -144 10 0 113
56 113 61 0 18 -21 18 -55 2 -31 -15 -37 -15 -45 -3 -7 11 -1 19 25 33 19 9
35 22 35 27 0 18 -17 18 -47 0 -27 -16 -33 -17 -43 -5 -9 11 -5 18 22 35 18
11 38 22 43 24 7 2 7 7 0 14 -7 7 -26 2 -60 -15z"/>
<path d="M1482 563 c-17 -6 -42 -57 -42 -83 0 -12 13 -35 30 -51 24 -25 37
-30 66 -27 21 2 42 10 48 20 15 25 1 33 -33 19 -59 -25 -94 28 -53 79 24 30
69 21 78 -14 9 -37 34 -42 34 -6 0 50 -72 86 -128 63z"/>
<path d="M2706 534 c-22 -8 -41 -16 -43 -17 -2 -3 46 -137 53 -146 2 -2 24 4
49 13 77 30 95 80 49 135 -28 34 -49 37 -108 15z m78 -36 c24 -34 20 -67 -10
-78 -34 -13 -33 -14 -44 15 -22 57 -22 73 -3 78 34 9 42 7 57 -15z"/>
<path d="M1690 482 c-32 -26 -39 -93 -11 -121 61 -61 151 -24 151 64 0 61 -89
98 -140 57z m88 -24 c16 -16 15 -60 -2 -83 -21 -28 -70 -10 -74 27 -6 55 42
90 76 56z"/>
<path d="M2419 461 c-14 -5 -14 -14 -1 -84 11 -64 17 -77 30 -73 10 2 34 7 55
11 23 4 37 11 37 21 0 11 -9 13 -39 8 l-39 -6 -8 48 c-10 68 -16 82 -35 75z"/>
<path d="M1897 408 c-10 -83 -9 -108 7 -108 10 0 17 16 21 48 3 26 7 54 9 62
1 8 12 -15 25 -52 21 -63 25 -68 51 -68 30 0 27 -9 46 120 5 35 3 40 -14 40
-16 0 -21 -10 -27 -62 l-7 -63 -22 65 c-21 59 -25 65 -53 68 -29 3 -30 2 -36
-50z"/>
<path d="M2224 435 c-6 -14 3 -147 9 -150 1 -1 29 1 62 4 70 7 76 25 10 29
-37 3 -46 7 -43 20 2 12 15 18 41 20 24 2 37 8 37 18 0 11 -9 13 -40 8 -36 -6
-40 -4 -40 14 0 17 7 21 43 24 60 4 48 22 -18 26 -43 2 -57 0 -61 -13z"/>
</g>
</svg>
